<svg width="261" height="45" viewBox="0 0 261 45" fill="none" xmlns="http://www.w3.org/2000/svg">
<path d="M0.28 12V0.48H1.456V10.872H6.928V12H0.28ZM11.8999 12.24C11.0412 12.24 10.3079 12.0453 9.69988 11.656C9.09188 11.2667 8.62521 10.728 8.29988 10.04C7.97454 9.352 7.81188 8.56267 7.81188 7.672C7.81188 6.76533 7.97721 5.97067 8.30788 5.288C8.63854 4.60533 9.10788 4.07467 9.71588 3.696C10.3292 3.312 11.0572 3.12 11.8999 3.12C12.7639 3.12 13.4999 3.31467 14.1079 3.704C14.7212 4.088 15.1879 4.624 15.5079 5.312C15.8332 5.99467 15.9959 6.78133 15.9959 7.672C15.9959 8.57867 15.8332 9.376 15.5079 10.064C15.1825 10.7467 14.7132 11.28 14.0999 11.664C13.4865 12.048 12.7532 12.24 11.8999 12.24ZM11.8999 11.112C12.8599 11.112 13.5745 10.7947 14.0439 10.16C14.5132 9.52 14.7479 8.69067 14.7479 7.672C14.7479 6.62667 14.5105 5.79467 14.0359 5.176C13.5665 4.55733 12.8545 4.248 11.8999 4.248C11.2545 4.248 10.7212 4.39467 10.2999 4.688C9.88388 4.976 9.57188 5.37867 9.36388 5.896C9.16121 6.408 9.05988 7 9.05988 7.672C9.05988 8.712 9.29988 9.54667 9.77988 10.176C10.2599 10.8 10.9665 11.112 11.8999 11.112ZM21.3446 12.24C20.4753 12.24 19.7393 12.0453 19.1366 11.656C18.534 11.2667 18.0753 10.7307 17.7606 10.048C17.4513 9.36 17.2913 8.57067 17.2806 7.68C17.2913 6.77333 17.4566 5.97867 17.7766 5.296C18.0966 4.608 18.558 4.07467 19.1606 3.696C19.7633 3.312 20.494 3.12 21.3526 3.12C22.2273 3.12 22.9873 3.33333 23.6326 3.76C24.2833 4.18667 24.7286 4.77067 24.9686 5.512L23.8166 5.88C23.614 5.36267 23.2913 4.96267 22.8486 4.68C22.4113 4.392 21.91 4.248 21.3446 4.248C20.71 4.248 20.1846 4.39467 19.7686 4.688C19.3526 4.976 19.0433 5.37867 18.8406 5.896C18.638 6.41333 18.534 7.008 18.5286 7.68C18.5393 8.71467 18.7793 9.54667 19.2486 10.176C19.718 10.8 20.4166 11.112 21.3446 11.112C21.9313 11.112 22.43 10.9787 22.8406 10.712C23.2566 10.44 23.5713 10.0453 23.7846 9.528L24.9686 9.88C24.6486 10.648 24.1793 11.2347 23.5606 11.64C22.942 12.04 22.2033 12.24 21.3446 12.24ZM29.0295 12.24C28.3788 12.24 27.8322 12.1227 27.3895 11.888C26.9522 11.6533 26.6242 11.3413 26.4055 10.952C26.1868 10.5627 26.0775 10.1387 26.0775 9.68C26.0775 9.21067 26.1708 8.81067 26.3575 8.48C26.5495 8.144 26.8082 7.86933 27.1335 7.656C27.4642 7.44267 27.8455 7.28 28.2775 7.168C28.7148 7.06133 29.1975 6.968 29.7255 6.888C30.2588 6.80267 30.7788 6.73067 31.2855 6.672C31.7975 6.608 32.2455 6.54667 32.6295 6.488L32.2135 6.744C32.2295 5.89067 32.0642 5.25867 31.7175 4.848C31.3708 4.43733 30.7682 4.232 29.9095 4.232C29.3175 4.232 28.8162 4.36533 28.4055 4.632C28.0002 4.89867 27.7148 5.32 27.5495 5.896L26.4055 5.56C26.6028 4.78667 27.0002 4.18667 27.5975 3.76C28.1948 3.33333 28.9708 3.12 29.9255 3.12C30.7148 3.12 31.3842 3.26933 31.9335 3.568C32.4882 3.86133 32.8802 4.288 33.1095 4.848C33.2162 5.09867 33.2855 5.37867 33.3175 5.688C33.3495 5.99733 33.3655 6.312 33.3655 6.632V12H32.3175V9.832L32.6215 9.96C32.3282 10.7013 31.8722 11.2667 31.2535 11.656C30.6348 12.0453 29.8935 12.24 29.0295 12.24ZM29.1655 11.224C29.7148 11.224 30.1948 11.1253 30.6055 10.928C31.0162 10.7307 31.3468 10.4613 31.5975 10.12C31.8482 9.77333 32.0108 9.384 32.0855 8.952C32.1495 8.67467 32.1842 8.37067 32.1895 8.04C32.1948 7.704 32.1975 7.45333 32.1975 7.288L32.6455 7.52C32.2455 7.57333 31.8108 7.62667 31.3415 7.68C30.8775 7.73333 30.4188 7.79467 29.9655 7.864C29.5175 7.93333 29.1122 8.016 28.7495 8.112C28.5042 8.18133 28.2668 8.28 28.0375 8.408C27.8082 8.53067 27.6188 8.696 27.4695 8.904C27.3255 9.112 27.2535 9.37067 27.2535 9.68C27.2535 9.93067 27.3148 10.1733 27.4375 10.408C27.5655 10.6427 27.7682 10.8373 28.0455 10.992C28.3282 11.1467 28.7015 11.224 29.1655 11.224ZM40.1521 12C39.6668 12.1013 39.1868 12.1413 38.7121 12.12C38.2428 12.0987 37.8215 11.9973 37.4481 11.816C37.0801 11.6347 36.8001 11.352 36.6081 10.968C36.4535 10.648 36.3681 10.3253 36.3521 10C36.3415 9.66933 36.3361 9.29333 36.3361 8.872V0.959999H37.5041V8.824C37.5041 9.18667 37.5068 9.49067 37.5121 9.736C37.5228 9.976 37.5788 10.1893 37.6801 10.376C37.8721 10.7333 38.1761 10.9467 38.5921 11.016C39.0135 11.0853 39.5335 11.0693 40.1521 10.968V12ZM34.4881 4.368V3.36H40.1521V4.368H34.4881ZM42.0144 1.72V0.4H43.1904V1.72H42.0144ZM42.0144 12V3.36H43.1904V12H42.0144ZM49.1968 12.24C48.3381 12.24 47.6048 12.0453 46.9968 11.656C46.3888 11.2667 45.9221 10.728 45.5968 10.04C45.2714 9.352 45.1088 8.56267 45.1088 7.672C45.1088 6.76533 45.2741 5.97067 45.6048 5.288C45.9354 4.60533 46.4048 4.07467 47.0128 3.696C47.6261 3.312 48.3541 3.12 49.1968 3.12C50.0608 3.12 50.7968 3.31467 51.4048 3.704C52.0181 4.088 52.4848 4.624 52.8048 5.312C53.1301 5.99467 53.2928 6.78133 53.2928 7.672C53.2928 8.57867 53.1301 9.376 52.8048 10.064C52.4794 10.7467 52.0101 11.28 51.3968 11.664C50.7834 12.048 50.0501 12.24 49.1968 12.24ZM49.1968 11.112C50.1568 11.112 50.8714 10.7947 51.3408 10.16C51.8101 9.52 52.0448 8.69067 52.0448 7.672C52.0448 6.62667 51.8074 5.79467 51.3328 5.176C50.8634 4.55733 50.1514 4.248 49.1968 4.248C48.5514 4.248 48.0181 4.39467 47.5968 4.688C47.1808 4.976 46.8688 5.37867 46.6608 5.896C46.4581 6.408 46.3568 7 46.3568 7.672C46.3568 8.712 46.5968 9.54667 47.0768 10.176C47.5568 10.8 48.2634 11.112 49.1968 11.112ZM61.2975 12V7.592C61.2975 7.112 61.2522 6.672 61.1615 6.272C61.0708 5.86667 60.9242 5.51467 60.7215 5.216C60.5242 4.912 60.2655 4.67733 59.9455 4.512C59.6308 4.34667 59.2468 4.264 58.7935 4.264C58.3775 4.264 58.0095 4.336 57.6895 4.48C57.3748 4.624 57.1082 4.832 56.8895 5.104C56.6762 5.37067 56.5135 5.696 56.4015 6.08C56.2895 6.464 56.2335 6.90133 56.2335 7.392L55.4015 7.208C55.4015 6.32267 55.5562 5.57867 55.8655 4.976C56.1748 4.37333 56.6015 3.91733 57.1455 3.608C57.6895 3.29867 58.3135 3.144 59.0175 3.144C59.5348 3.144 59.9855 3.224 60.3695 3.384C60.7588 3.544 61.0868 3.76 61.3535 4.032C61.6255 4.304 61.8442 4.616 62.0095 4.968C62.1748 5.31467 62.2948 5.68533 62.3695 6.08C62.4442 6.46933 62.4815 6.85867 62.4815 7.248V12H61.2975ZM55.0495 12V3.36H56.1135V5.488H56.2335V12H55.0495ZM68.4006 10.72V9.352H69.7686V10.72H68.4006ZM68.4086 6.008V4.64H69.7766V6.008H68.4086Z" fill="#131318" fill-opacity="0.4"/>
<path d="M2.51 44V33.407L0.08 34.892V32.498L2.51 31.04H4.724V44H2.51ZM11.9956 44.27C11.3356 44.27 10.7206 44.135 10.1506 43.865C9.58058 43.589 9.08858 43.211 8.67458 42.731C8.26658 42.251 7.97258 41.693 7.79258 41.057L9.88058 40.499C9.96458 40.847 10.1176 41.147 10.3396 41.399C10.5676 41.651 10.8316 41.846 11.1316 41.984C11.4376 42.122 11.7526 42.191 12.0766 42.191C12.4966 42.191 12.8806 42.089 13.2286 41.885C13.5766 41.681 13.8526 41.408 14.0566 41.066C14.2606 40.718 14.3626 40.334 14.3626 39.914C14.3626 39.494 14.2576 39.113 14.0476 38.771C13.8436 38.423 13.5676 38.15 13.2196 37.952C12.8716 37.748 12.4906 37.646 12.0766 37.646C11.5786 37.646 11.1646 37.736 10.8346 37.916C10.5106 38.096 10.2616 38.288 10.0876 38.492L8.23358 37.898L8.62958 31.04H15.6676V33.074H9.79058L10.6006 32.309L10.3126 37.079L9.91658 36.593C10.2526 36.287 10.6426 36.059 11.0866 35.909C11.5306 35.759 11.9596 35.684 12.3736 35.684C13.1836 35.684 13.9006 35.87 14.5246 36.242C15.1546 36.608 15.6466 37.109 16.0006 37.745C16.3606 38.381 16.5406 39.104 16.5406 39.914C16.5406 40.724 16.3306 41.459 15.9106 42.119C15.4906 42.773 14.9356 43.295 14.2456 43.685C13.5616 44.075 12.8116 44.27 11.9956 44.27ZM17.8648 43.982V42.092L23.4088 37.151C23.8408 36.767 24.1408 36.404 24.3088 36.062C24.4768 35.72 24.5608 35.39 24.5608 35.072C24.5608 34.64 24.4678 34.256 24.2818 33.92C24.0958 33.578 23.8378 33.308 23.5078 33.11C23.1838 32.912 22.8088 32.813 22.3828 32.813C21.9328 32.813 21.5338 32.918 21.1858 33.128C20.8438 33.332 20.5768 33.605 20.3848 33.947C20.1928 34.289 20.1028 34.658 20.1148 35.054H17.8828C17.8828 34.19 18.0748 33.437 18.4588 32.795C18.8488 32.153 19.3828 31.655 20.0608 31.301C20.7448 30.947 21.5338 30.77 22.4278 30.77C23.2558 30.77 23.9998 30.956 24.6598 31.328C25.3198 31.694 25.8388 32.204 26.2168 32.858C26.5948 33.506 26.7838 34.253 26.7838 35.099C26.7838 35.717 26.6998 36.236 26.5318 36.656C26.3638 37.076 26.1118 37.463 25.7758 37.817C25.4458 38.171 25.0348 38.564 24.5428 38.996L20.6098 42.479L20.4118 41.939H26.7838V43.982H17.8648ZM32.2235 31.04H34.4015L30.9455 44H28.7675L32.2235 31.04ZM38.9846 44V33.407L36.5546 34.892V32.498L38.9846 31.04H41.1986V44H38.9846ZM48.2307 44V31.04H50.1837L54.6657 40.22L59.1477 31.04H61.1007V44H59.0757V35.693L55.0977 44H54.2337L50.2647 35.693V44H48.2307ZM67.9221 44.27C66.9501 44.27 66.1011 44.051 65.3751 43.613C64.6491 43.175 64.0851 42.572 63.6831 41.804C63.2871 41.03 63.0891 40.142 63.0891 39.14C63.0891 38.12 63.2931 37.226 63.7011 36.458C64.1091 35.69 64.6761 35.09 65.4021 34.658C66.1281 34.226 66.9681 34.01 67.9221 34.01C68.9001 34.01 69.7521 34.229 70.4781 34.667C71.2041 35.105 71.7681 35.711 72.1701 36.485C72.5721 37.253 72.7731 38.138 72.7731 39.14C72.7731 40.148 72.5691 41.039 72.1611 41.813C71.7591 42.581 71.1951 43.184 70.4691 43.622C69.7431 44.054 68.8941 44.27 67.9221 44.27ZM67.9221 42.236C68.7861 42.236 69.4281 41.948 69.8481 41.372C70.2681 40.796 70.4781 40.052 70.4781 39.14C70.4781 38.198 70.2651 37.448 69.8391 36.89C69.4131 36.326 68.7741 36.044 67.9221 36.044C67.3401 36.044 66.8601 36.176 66.4821 36.44C66.1101 36.698 65.8341 37.061 65.6541 37.529C65.4741 37.991 65.3841 38.528 65.3841 39.14C65.3841 40.082 65.5971 40.835 66.0231 41.399C66.4551 41.957 67.0881 42.236 67.9221 42.236ZM81.4791 44V39.32C81.4791 39.014 81.4581 38.675 81.4161 38.303C81.3741 37.931 81.2751 37.574 81.1191 37.232C80.9691 36.884 80.7411 36.599 80.4351 36.377C80.1351 36.155 79.7271 36.044 79.2111 36.044C78.9351 36.044 78.6621 36.089 78.3921 36.179C78.1221 36.269 77.8761 36.425 77.6541 36.647C77.4381 36.863 77.2641 37.163 77.1321 37.547C77.0001 37.925 76.9341 38.411 76.9341 39.005L75.6471 38.456C75.6471 37.628 75.8061 36.878 76.1241 36.206C76.4481 35.534 76.9221 35 77.5461 34.604C78.1701 34.202 78.9381 34.001 79.8501 34.001C80.5701 34.001 81.1641 34.121 81.6321 34.361C82.1001 34.601 82.4721 34.907 82.7481 35.279C83.0241 35.651 83.2281 36.047 83.3601 36.467C83.4921 36.887 83.5761 37.286 83.6121 37.664C83.6541 38.036 83.6751 38.339 83.6751 38.573V44H81.4791ZM74.7381 44V31.04H76.6731V37.862H76.9341V44H74.7381ZM88.7417 44.27C88.0397 44.27 87.4457 44.138 86.9597 43.874C86.4737 43.604 86.1047 43.247 85.8527 42.803C85.6067 42.359 85.4837 41.87 85.4837 41.336C85.4837 40.868 85.5617 40.448 85.7177 40.076C85.8737 39.698 86.1137 39.374 86.4377 39.104C86.7617 38.828 87.1817 38.603 87.6977 38.429C88.0877 38.303 88.5437 38.189 89.0657 38.087C89.5937 37.985 90.1637 37.892 90.7757 37.808C91.3937 37.718 92.0387 37.622 92.7107 37.52L91.9367 37.961C91.9427 37.289 91.7927 36.794 91.4867 36.476C91.1807 36.158 90.6647 35.999 89.9387 35.999C89.5007 35.999 89.0777 36.101 88.6697 36.305C88.2617 36.509 87.9767 36.86 87.8147 37.358L85.8347 36.737C86.0747 35.915 86.5307 35.255 87.2027 34.757C87.8807 34.259 88.7927 34.01 89.9387 34.01C90.8027 34.01 91.5617 34.151 92.2157 34.433C92.8757 34.715 93.3647 35.177 93.6827 35.819C93.8567 36.161 93.9617 36.512 93.9977 36.872C94.0337 37.226 94.0517 37.613 94.0517 38.033V44H92.1527V41.894L92.4677 42.236C92.0297 42.938 91.5167 43.454 90.9287 43.784C90.3467 44.108 89.6177 44.27 88.7417 44.27ZM89.1737 42.542C89.6657 42.542 90.0857 42.455 90.4337 42.281C90.7817 42.107 91.0577 41.894 91.2617 41.642C91.4717 41.39 91.6127 41.153 91.6847 40.931C91.7987 40.655 91.8617 40.34 91.8737 39.986C91.8917 39.626 91.9007 39.335 91.9007 39.113L92.5667 39.311C91.9127 39.413 91.3517 39.503 90.8837 39.581C90.4157 39.659 90.0137 39.734 89.6777 39.806C89.3417 39.872 89.0447 39.947 88.7867 40.031C88.5347 40.121 88.3217 40.226 88.1477 40.346C87.9737 40.466 87.8387 40.604 87.7427 40.76C87.6527 40.916 87.6077 41.099 87.6077 41.309C87.6077 41.549 87.6677 41.762 87.7877 41.948C87.9077 42.128 88.0817 42.272 88.3097 42.38C88.5437 42.488 88.8317 42.542 89.1737 42.542ZM96.3768 44L96.3948 31.04H98.5908V38.96L102.146 34.28H104.855L101.084 39.14L105.179 44H102.308L98.5908 39.32V44H96.3768ZM112.803 44V39.32C112.803 39.014 112.782 38.675 112.74 38.303C112.698 37.931 112.599 37.574 112.443 37.232C112.293 36.884 112.065 36.599 111.759 36.377C111.459 36.155 111.051 36.044 110.535 36.044C110.259 36.044 109.986 36.089 109.716 36.179C109.446 36.269 109.2 36.425 108.978 36.647C108.762 36.863 108.588 37.163 108.456 37.547C108.324 37.925 108.258 38.411 108.258 39.005L106.971 38.456C106.971 37.628 107.13 36.878 107.448 36.206C107.772 35.534 108.246 35 108.87 34.604C109.494 34.202 110.262 34.001 111.174 34.001C111.894 34.001 112.488 34.121 112.956 34.361C113.424 34.601 113.796 34.907 114.072 35.279C114.348 35.651 114.552 36.047 114.684 36.467C114.816 36.887 114.9 37.286 114.936 37.664C114.978 38.036 114.999 38.339 114.999 38.573V44H112.803ZM106.062 44V31.04H107.997V37.862H108.258V44H106.062ZM120.066 44.27C119.364 44.27 118.77 44.138 118.284 43.874C117.798 43.604 117.429 43.247 117.177 42.803C116.931 42.359 116.808 41.87 116.808 41.336C116.808 40.868 116.886 40.448 117.042 40.076C117.198 39.698 117.438 39.374 117.762 39.104C118.086 38.828 118.506 38.603 119.022 38.429C119.412 38.303 119.868 38.189 120.39 38.087C120.918 37.985 121.488 37.892 122.1 37.808C122.718 37.718 123.363 37.622 124.035 37.52L123.261 37.961C123.267 37.289 123.117 36.794 122.811 36.476C122.505 36.158 121.989 35.999 121.263 35.999C120.825 35.999 120.402 36.101 119.994 36.305C119.586 36.509 119.301 36.86 119.139 37.358L117.159 36.737C117.399 35.915 117.855 35.255 118.527 34.757C119.205 34.259 120.117 34.01 121.263 34.01C122.127 34.01 122.886 34.151 123.54 34.433C124.2 34.715 124.689 35.177 125.007 35.819C125.181 36.161 125.286 36.512 125.322 36.872C125.358 37.226 125.376 37.613 125.376 38.033V44H123.477V41.894L123.792 42.236C123.354 42.938 122.841 43.454 122.253 43.784C121.671 44.108 120.942 44.27 120.066 44.27ZM120.498 42.542C120.99 42.542 121.41 42.455 121.758 42.281C122.106 42.107 122.382 41.894 122.586 41.642C122.796 41.39 122.937 41.153 123.009 40.931C123.123 40.655 123.186 40.34 123.198 39.986C123.216 39.626 123.225 39.335 123.225 39.113L123.891 39.311C123.237 39.413 122.676 39.503 122.208 39.581C121.74 39.659 121.338 39.734 121.002 39.806C120.666 39.872 120.369 39.947 120.111 40.031C119.859 40.121 119.646 40.226 119.472 40.346C119.298 40.466 119.163 40.604 119.067 40.76C118.977 40.916 118.932 41.099 118.932 41.309C118.932 41.549 118.992 41.762 119.112 41.948C119.232 42.128 119.406 42.272 119.634 42.38C119.868 42.488 120.156 42.542 120.498 42.542ZM127.899 44V30.77H130.068V44H127.899ZM132.944 32.804V30.815H135.113V32.804H132.944ZM132.944 44V34.28H135.113V44H132.944ZM144.148 44L140.359 31.04H142.636L145.219 40.4L147.793 31.058L150.07 31.04L152.653 40.4L155.227 31.04H157.504L153.724 44H151.582L148.927 34.784L146.29 44H144.148ZM158.801 32.804V30.815H160.97V32.804H158.801ZM158.801 44V34.28H160.97V44H158.801ZM163.666 44V34.28H165.583V36.647L165.349 36.341C165.469 36.017 165.628 35.723 165.826 35.459C166.03 35.189 166.273 34.967 166.555 34.793C166.795 34.631 167.059 34.505 167.347 34.415C167.641 34.319 167.941 34.262 168.247 34.244C168.553 34.22 168.85 34.232 169.138 34.28V36.305C168.85 36.221 168.517 36.194 168.139 36.224C167.767 36.254 167.431 36.359 167.131 36.539C166.831 36.701 166.585 36.908 166.393 37.16C166.207 37.412 166.069 37.7 165.979 38.024C165.889 38.342 165.844 38.687 165.844 39.059V44H163.666ZM175.099 44.27C174.115 44.27 173.251 44.057 172.507 43.631C171.763 43.205 171.181 42.614 170.761 41.858C170.347 41.102 170.14 40.232 170.14 39.248C170.14 38.186 170.344 37.265 170.752 36.485C171.16 35.699 171.727 35.09 172.453 34.658C173.179 34.226 174.019 34.01 174.973 34.01C175.981 34.01 176.836 34.247 177.538 34.721C178.246 35.189 178.771 35.852 179.113 36.71C179.455 37.568 179.584 38.579 179.5 39.743H177.349V38.951C177.343 37.895 177.157 37.124 176.791 36.638C176.425 36.152 175.849 35.909 175.063 35.909C174.175 35.909 173.515 36.185 173.083 36.737C172.651 37.283 172.435 38.084 172.435 39.14C172.435 40.124 172.651 40.886 173.083 41.426C173.515 41.966 174.145 42.236 174.973 42.236C175.507 42.236 175.966 42.119 176.35 41.885C176.74 41.645 177.04 41.3 177.25 40.85L179.392 41.498C179.02 42.374 178.444 43.055 177.664 43.541C176.89 44.027 176.035 44.27 175.099 44.27ZM171.751 39.743V38.105H178.438V39.743H171.751ZM181.688 44V30.77H183.857V44H181.688ZM190.972 44.27C189.988 44.27 189.124 44.057 188.38 43.631C187.636 43.205 187.054 42.614 186.634 41.858C186.22 41.102 186.013 40.232 186.013 39.248C186.013 38.186 186.217 37.265 186.625 36.485C187.033 35.699 187.6 35.09 188.326 34.658C189.052 34.226 189.892 34.01 190.846 34.01C191.854 34.01 192.709 34.247 193.411 34.721C194.119 35.189 194.644 35.852 194.986 36.71C195.328 37.568 195.457 38.579 195.373 39.743H193.222V38.951C193.216 37.895 193.03 37.124 192.664 36.638C192.298 36.152 191.722 35.909 190.936 35.909C190.048 35.909 189.388 36.185 188.956 36.737C188.524 37.283 188.308 38.084 188.308 39.14C188.308 40.124 188.524 40.886 188.956 41.426C189.388 41.966 190.018 42.236 190.846 42.236C191.38 42.236 191.839 42.119 192.223 41.885C192.613 41.645 192.913 41.3 193.123 40.85L195.265 41.498C194.893 42.374 194.317 43.055 193.537 43.541C192.763 44.027 191.908 44.27 190.972 44.27ZM187.624 39.743V38.105H194.311V39.743H187.624ZM201.134 44.27C199.934 44.27 198.959 44 198.209 43.46C197.459 42.92 197.003 42.161 196.841 41.183L199.055 40.841C199.169 41.321 199.421 41.699 199.811 41.975C200.201 42.251 200.693 42.389 201.287 42.389C201.809 42.389 202.211 42.287 202.493 42.083C202.781 41.873 202.925 41.588 202.925 41.228C202.925 41.006 202.871 40.829 202.763 40.697C202.661 40.559 202.433 40.427 202.079 40.301C201.725 40.175 201.182 40.016 200.45 39.824C199.634 39.608 198.986 39.377 198.506 39.131C198.026 38.879 197.681 38.582 197.471 38.24C197.261 37.898 197.156 37.484 197.156 36.998C197.156 36.392 197.315 35.864 197.633 35.414C197.951 34.964 198.395 34.619 198.965 34.379C199.535 34.133 200.207 34.01 200.981 34.01C201.737 34.01 202.406 34.127 202.988 34.361C203.576 34.595 204.05 34.928 204.41 35.36C204.77 35.792 204.992 36.299 205.076 36.881L202.862 37.277C202.808 36.863 202.619 36.536 202.295 36.296C201.977 36.056 201.551 35.921 201.017 35.891C200.507 35.861 200.096 35.939 199.784 36.125C199.472 36.305 199.316 36.56 199.316 36.89C199.316 37.076 199.379 37.235 199.505 37.367C199.631 37.499 199.883 37.631 200.261 37.763C200.645 37.895 201.215 38.057 201.971 38.249C202.745 38.447 203.363 38.675 203.825 38.933C204.293 39.185 204.629 39.488 204.833 39.842C205.043 40.196 205.148 40.625 205.148 41.129C205.148 42.107 204.791 42.875 204.077 43.433C203.369 43.991 202.388 44.27 201.134 44.27ZM210.872 44.27C209.672 44.27 208.697 44 207.947 43.46C207.197 42.92 206.741 42.161 206.579 41.183L208.793 40.841C208.907 41.321 209.159 41.699 209.549 41.975C209.939 42.251 210.431 42.389 211.025 42.389C211.547 42.389 211.949 42.287 212.231 42.083C212.519 41.873 212.663 41.588 212.663 41.228C212.663 41.006 212.609 40.829 212.501 40.697C212.399 40.559 212.171 40.427 211.817 40.301C211.463 40.175 210.92 40.016 210.188 39.824C209.372 39.608 208.724 39.377 208.244 39.131C207.764 38.879 207.419 38.582 207.209 38.24C206.999 37.898 206.894 37.484 206.894 36.998C206.894 36.392 207.053 35.864 207.371 35.414C207.689 34.964 208.133 34.619 208.703 34.379C209.273 34.133 209.945 34.01 210.719 34.01C211.475 34.01 212.144 34.127 212.726 34.361C213.314 34.595 213.788 34.928 214.148 35.36C214.508 35.792 214.73 36.299 214.814 36.881L212.6 37.277C212.546 36.863 212.357 36.536 212.033 36.296C211.715 36.056 211.289 35.921 210.755 35.891C210.245 35.861 209.834 35.939 209.522 36.125C209.21 36.305 209.054 36.56 209.054 36.89C209.054 37.076 209.117 37.235 209.243 37.367C209.369 37.499 209.621 37.631 209.999 37.763C210.383 37.895 210.953 38.057 211.709 38.249C212.483 38.447 213.101 38.675 213.563 38.933C214.031 39.185 214.367 39.488 214.571 39.842C214.781 40.196 214.886 40.625 214.886 41.129C214.886 42.107 214.529 42.875 213.815 43.433C213.107 43.991 212.126 44.27 210.872 44.27ZM225.807 44.27C224.967 44.27 224.178 44.123 223.44 43.829C222.708 43.529 222.063 43.091 221.505 42.515C220.953 41.939 220.521 41.234 220.209 40.4C219.897 39.56 219.741 38.6 219.741 37.52C219.741 36.104 220.005 34.895 220.533 33.893C221.061 32.885 221.784 32.114 222.702 31.58C223.62 31.04 224.655 30.77 225.807 30.77C227.403 30.77 228.666 31.142 229.596 31.886C230.532 32.624 231.165 33.662 231.495 35L229.281 35.351C229.035 34.583 228.633 33.971 228.075 33.515C227.517 33.053 226.806 32.822 225.942 32.822C225.072 32.81 224.349 32.999 223.773 33.389C223.197 33.779 222.762 34.328 222.468 35.036C222.18 35.744 222.036 36.572 222.036 37.52C222.036 38.468 222.18 39.293 222.468 39.995C222.756 40.691 223.188 41.234 223.764 41.624C224.346 42.014 225.072 42.215 225.942 42.227C226.596 42.233 227.169 42.116 227.661 41.876C228.153 41.63 228.555 41.261 228.867 40.769C229.179 40.271 229.389 39.65 229.497 38.906H227.211V37.205H231.801C231.813 37.301 231.822 37.442 231.828 37.628C231.834 37.814 231.837 37.925 231.837 37.961C231.837 39.185 231.594 40.274 231.108 41.228C230.628 42.176 229.938 42.92 229.038 43.46C228.138 44 227.061 44.27 225.807 44.27ZM236.363 44.27C235.661 44.27 235.067 44.138 234.581 43.874C234.095 43.604 233.726 43.247 233.474 42.803C233.228 42.359 233.105 41.87 233.105 41.336C233.105 40.868 233.183 40.448 233.339 40.076C233.495 39.698 233.735 39.374 234.059 39.104C234.383 38.828 234.803 38.603 235.319 38.429C235.709 38.303 236.165 38.189 236.687 38.087C237.215 37.985 237.785 37.892 238.397 37.808C239.015 37.718 239.66 37.622 240.332 37.52L239.558 37.961C239.564 37.289 239.414 36.794 239.108 36.476C238.802 36.158 238.286 35.999 237.56 35.999C237.122 35.999 236.699 36.101 236.291 36.305C235.883 36.509 235.598 36.86 235.436 37.358L233.456 36.737C233.696 35.915 234.152 35.255 234.824 34.757C235.502 34.259 236.414 34.01 237.56 34.01C238.424 34.01 239.183 34.151 239.837 34.433C240.497 34.715 240.986 35.177 241.304 35.819C241.478 36.161 241.583 36.512 241.619 36.872C241.655 37.226 241.673 37.613 241.673 38.033V44H239.774V41.894L240.089 42.236C239.651 42.938 239.138 43.454 238.55 43.784C237.968 44.108 237.239 44.27 236.363 44.27ZM236.795 42.542C237.287 42.542 237.707 42.455 238.055 42.281C238.403 42.107 238.679 41.894 238.883 41.642C239.093 41.39 239.234 41.153 239.306 40.931C239.42 40.655 239.483 40.34 239.495 39.986C239.513 39.626 239.522 39.335 239.522 39.113L240.188 39.311C239.534 39.413 238.973 39.503 238.505 39.581C238.037 39.659 237.635 39.734 237.299 39.806C236.963 39.872 236.666 39.947 236.408 40.031C236.156 40.121 235.943 40.226 235.769 40.346C235.595 40.466 235.46 40.604 235.364 40.76C235.274 40.916 235.229 41.099 235.229 41.309C235.229 41.549 235.289 41.762 235.409 41.948C235.529 42.128 235.703 42.272 235.931 42.38C236.165 42.488 236.453 42.542 236.795 42.542ZM249.713 44C249.071 44.12 248.441 44.171 247.823 44.153C247.211 44.141 246.662 44.03 246.176 43.82C245.69 43.604 245.321 43.265 245.069 42.803C244.847 42.383 244.73 41.954 244.718 41.516C244.706 41.078 244.7 40.583 244.7 40.031V31.58H246.86V39.905C246.86 40.295 246.863 40.637 246.869 40.931C246.881 41.225 246.944 41.465 247.058 41.651C247.274 42.011 247.619 42.212 248.093 42.254C248.567 42.296 249.107 42.272 249.713 42.182V44ZM242.936 35.981V34.28H249.713V35.981H242.936ZM255.73 44.27C254.746 44.27 253.882 44.057 253.138 43.631C252.394 43.205 251.812 42.614 251.392 41.858C250.978 41.102 250.771 40.232 250.771 39.248C250.771 38.186 250.975 37.265 251.383 36.485C251.791 35.699 252.358 35.09 253.084 34.658C253.81 34.226 254.65 34.01 255.604 34.01C256.612 34.01 257.467 34.247 258.169 34.721C258.877 35.189 259.402 35.852 259.744 36.71C260.086 37.568 260.215 38.579 260.131 39.743H257.98V38.951C257.974 37.895 257.788 37.124 257.422 36.638C257.056 36.152 256.48 35.909 255.694 35.909C254.806 35.909 254.146 36.185 253.714 36.737C253.282 37.283 253.066 38.084 253.066 39.14C253.066 40.124 253.282 40.886 253.714 41.426C254.146 41.966 254.776 42.236 255.604 42.236C256.138 42.236 256.597 42.119 256.981 41.885C257.371 41.645 257.671 41.3 257.881 40.85L260.023 41.498C259.651 42.374 259.075 43.055 258.295 43.541C257.521 44.027 256.666 44.27 255.73 44.27ZM252.382 39.743V38.105H259.069V39.743H252.382Z" fill="#131318"/>
</svg>
