<svg width="200" height="49" viewBox="0 0 200 49" fill="none" xmlns="http://www.w3.org/2000/svg">
<path d="M0.12 12V0.48H7.32V1.608H1.296V5.592H6.36V6.72H1.296V10.872H7.32V12H0.12ZM19.549 12L19.557 6.328C19.557 5.66133 19.3703 5.13867 18.997 4.76C18.629 4.376 18.1597 4.184 17.589 4.184C17.2637 4.184 16.9463 4.25867 16.637 4.408C16.3277 4.55733 16.0717 4.79733 15.869 5.128C15.6717 5.45867 15.573 5.89067 15.573 6.424L14.877 6.224C14.861 5.60533 14.981 5.064 15.237 4.6C15.4983 4.136 15.8557 3.776 16.309 3.52C16.7677 3.25867 17.285 3.128 17.861 3.128C18.7303 3.128 19.4263 3.39733 19.949 3.936C20.4717 4.46933 20.733 5.192 20.733 6.104L20.725 12H19.549ZM9.237 12V3.36H10.293V5.488H10.421V12H9.237ZM14.405 12L14.413 6.408C14.413 5.72 14.229 5.17867 13.861 4.784C13.4983 4.384 13.0183 4.184 12.421 4.184C11.8237 4.184 11.341 4.38933 10.973 4.8C10.605 5.20533 10.421 5.74667 10.421 6.424L9.717 6.04C9.717 5.48533 9.84767 4.98933 10.109 4.552C10.3703 4.10933 10.7277 3.76267 11.181 3.512C11.6343 3.256 12.149 3.128 12.725 3.128C13.2743 3.128 13.7623 3.24533 14.189 3.48C14.621 3.71467 14.9597 4.056 15.205 4.504C15.4503 4.952 15.573 5.496 15.573 6.136L15.565 12H14.405ZM25.2795 12.24C24.6288 12.24 24.0822 12.1227 23.6395 11.888C23.2022 11.6533 22.8742 11.3413 22.6555 10.952C22.4368 10.5627 22.3275 10.1387 22.3275 9.68C22.3275 9.21067 22.4208 8.81067 22.6075 8.48C22.7995 8.144 23.0582 7.86933 23.3835 7.656C23.7142 7.44267 24.0955 7.28 24.5275 7.168C24.9648 7.06133 25.4475 6.968 25.9755 6.888C26.5088 6.80267 27.0288 6.73067 27.5355 6.672C28.0475 6.608 28.4955 6.54667 28.8795 6.488L28.4635 6.744C28.4795 5.89067 28.3142 5.25867 27.9675 4.848C27.6208 4.43733 27.0182 4.232 26.1595 4.232C25.5675 4.232 25.0662 4.36533 24.6555 4.632C24.2502 4.89867 23.9648 5.32 23.7995 5.896L22.6555 5.56C22.8528 4.78667 23.2502 4.18667 23.8475 3.76C24.4448 3.33333 25.2208 3.12 26.1755 3.12C26.9648 3.12 27.6342 3.26933 28.1835 3.568C28.7382 3.86133 29.1302 4.288 29.3595 4.848C29.4662 5.09867 29.5355 5.37867 29.5675 5.688C29.5995 5.99733 29.6155 6.312 29.6155 6.632V12H28.5675V9.832L28.8715 9.96C28.5782 10.7013 28.1222 11.2667 27.5035 11.656C26.8848 12.0453 26.1435 12.24 25.2795 12.24ZM25.4155 11.224C25.9648 11.224 26.4448 11.1253 26.8555 10.928C27.2662 10.7307 27.5968 10.4613 27.8475 10.12C28.0982 9.77333 28.2608 9.384 28.3355 8.952C28.3995 8.67467 28.4342 8.37067 28.4395 8.04C28.4448 7.704 28.4475 7.45333 28.4475 7.288L28.8955 7.52C28.4955 7.57333 28.0608 7.62667 27.5915 7.68C27.1275 7.73333 26.6688 7.79467 26.2155 7.864C25.7675 7.93333 25.3622 8.016 24.9995 8.112C24.7542 8.18133 24.5168 8.28 24.2875 8.408C24.0582 8.53067 23.8688 8.696 23.7195 8.904C23.5755 9.112 23.5035 9.37067 23.5035 9.68C23.5035 9.93067 23.5648 10.1733 23.6875 10.408C23.8155 10.6427 24.0182 10.8373 24.2955 10.992C24.5782 11.1467 24.9515 11.224 25.4155 11.224ZM31.8581 1.72V0.4H33.0341V1.72H31.8581ZM31.8581 12V3.36H33.0341V12H31.8581ZM35.5925 12V0.24H36.7685V12H35.5925ZM43.01 10.72V9.352H44.378V10.72H43.01ZM43.018 6.008V4.64H44.386V6.008H43.018Z" fill="#131318" fill-opacity="0.4"/>
<path d="M6.983 44V39.32C6.983 39.014 6.962 38.675 6.92 38.303C6.878 37.931 6.779 37.574 6.623 37.232C6.473 36.884 6.245 36.599 5.939 36.377C5.639 36.155 5.231 36.044 4.715 36.044C4.439 36.044 4.166 36.089 3.896 36.179C3.626 36.269 3.38 36.425 3.158 36.647C2.942 36.863 2.768 37.163 2.636 37.547C2.504 37.925 2.438 38.411 2.438 39.005L1.151 38.456C1.151 37.628 1.31 36.878 1.628 36.206C1.952 35.534 2.426 35 3.05 34.604C3.674 34.202 4.442 34.001 5.354 34.001C6.074 34.001 6.668 34.121 7.136 34.361C7.604 34.601 7.976 34.907 8.252 35.279C8.528 35.651 8.732 36.047 8.864 36.467C8.996 36.887 9.08 37.286 9.116 37.664C9.158 38.036 9.179 38.339 9.179 38.573V44H6.983ZM0.242 44V31.04H2.177V37.862H2.438V44H0.242ZM15.8206 44.27C14.8486 44.27 13.9996 44.051 13.2736 43.613C12.5476 43.175 11.9836 42.572 11.5816 41.804C11.1856 41.03 10.9876 40.142 10.9876 39.14C10.9876 38.12 11.1916 37.226 11.5996 36.458C12.0076 35.69 12.5746 35.09 13.3006 34.658C14.0266 34.226 14.8666 34.01 15.8206 34.01C16.7986 34.01 17.6506 34.229 18.3766 34.667C19.1026 35.105 19.6666 35.711 20.0686 36.485C20.4706 37.253 20.6716 38.138 20.6716 39.14C20.6716 40.148 20.4676 41.039 20.0596 41.813C19.6576 42.581 19.0936 43.184 18.3676 43.622C17.6416 44.054 16.7926 44.27 15.8206 44.27ZM15.8206 42.236C16.6846 42.236 17.3266 41.948 17.7466 41.372C18.1666 40.796 18.3766 40.052 18.3766 39.14C18.3766 38.198 18.1636 37.448 17.7376 36.89C17.3116 36.326 16.6726 36.044 15.8206 36.044C15.2386 36.044 14.7586 36.176 14.3806 36.44C14.0086 36.698 13.7326 37.061 13.5526 37.529C13.3726 37.991 13.2826 38.528 13.2826 39.14C13.2826 40.082 13.4956 40.835 13.9216 41.399C14.3536 41.957 14.9866 42.236 15.8206 42.236ZM26.8755 44.27C25.8735 44.27 25.0185 44.048 24.3105 43.604C23.6025 43.154 23.0595 42.542 22.6815 41.768C22.3095 40.994 22.1205 40.118 22.1145 39.14C22.1205 38.144 22.3155 37.262 22.6995 36.494C23.0895 35.72 23.6415 35.114 24.3555 34.676C25.0695 34.232 25.9185 34.01 26.9025 34.01C28.0065 34.01 28.9395 34.289 29.7015 34.847C30.4695 35.399 30.9705 36.155 31.2045 37.115L29.0445 37.7C28.8765 37.178 28.5975 36.773 28.2075 36.485C27.8175 36.191 27.3735 36.044 26.8755 36.044C26.3115 36.044 25.8465 36.179 25.4805 36.449C25.1145 36.713 24.8445 37.079 24.6705 37.547C24.4965 38.015 24.4095 38.546 24.4095 39.14C24.4095 40.064 24.6165 40.811 25.0305 41.381C25.4445 41.951 26.0595 42.236 26.8755 42.236C27.4515 42.236 27.9045 42.104 28.2345 41.84C28.5705 41.576 28.8225 41.195 28.9905 40.697L31.2045 41.192C30.9045 42.182 30.3795 42.944 29.6295 43.478C28.8795 44.006 27.9615 44.27 26.8755 44.27ZM32.99 44L33.008 31.04H35.204V38.96L38.759 34.28H41.468L37.697 39.14L41.792 44H38.921L35.204 39.32V44H32.99ZM46.9368 44.27C45.9528 44.27 45.0888 44.057 44.3448 43.631C43.6008 43.205 43.0188 42.614 42.5988 41.858C42.1848 41.102 41.9778 40.232 41.9778 39.248C41.9778 38.186 42.1818 37.265 42.5898 36.485C42.9978 35.699 43.5648 35.09 44.2908 34.658C45.0168 34.226 45.8568 34.01 46.8108 34.01C47.8188 34.01 48.6738 34.247 49.3758 34.721C50.0838 35.189 50.6088 35.852 50.9508 36.71C51.2928 37.568 51.4218 38.579 51.3378 39.743H49.1868V38.951C49.1808 37.895 48.9948 37.124 48.6288 36.638C48.2628 36.152 47.6868 35.909 46.9008 35.909C46.0128 35.909 45.3528 36.185 44.9208 36.737C44.4888 37.283 44.2728 38.084 44.2728 39.14C44.2728 40.124 44.4888 40.886 44.9208 41.426C45.3528 41.966 45.9828 42.236 46.8108 42.236C47.3448 42.236 47.8038 42.119 48.1878 41.885C48.5778 41.645 48.8778 41.3 49.0878 40.85L51.2298 41.498C50.8578 42.374 50.2818 43.055 49.5018 43.541C48.7278 44.027 47.8728 44.27 46.9368 44.27ZM43.5888 39.743V38.105H50.2758V39.743H43.5888ZM54.4482 48.32L56.3202 43.181L56.3562 44.693L52.1172 34.28H54.3762L57.3822 41.984H56.8062L59.7312 34.28H61.9002L56.4822 48.32H54.4482ZM66.9954 44.27C65.7954 44.27 64.8204 44 64.0704 43.46C63.3204 42.92 62.8644 42.161 62.7024 41.183L64.9164 40.841C65.0304 41.321 65.2824 41.699 65.6724 41.975C66.0624 42.251 66.5544 42.389 67.1484 42.389C67.6704 42.389 68.0724 42.287 68.3544 42.083C68.6424 41.873 68.7864 41.588 68.7864 41.228C68.7864 41.006 68.7324 40.829 68.6244 40.697C68.5224 40.559 68.2944 40.427 67.9404 40.301C67.5864 40.175 67.0434 40.016 66.3114 39.824C65.4954 39.608 64.8474 39.377 64.3674 39.131C63.8874 38.879 63.5424 38.582 63.3324 38.24C63.1224 37.898 63.0174 37.484 63.0174 36.998C63.0174 36.392 63.1764 35.864 63.4944 35.414C63.8124 34.964 64.2564 34.619 64.8264 34.379C65.3964 34.133 66.0684 34.01 66.8424 34.01C67.5984 34.01 68.2674 34.127 68.8494 34.361C69.4374 34.595 69.9114 34.928 70.2714 35.36C70.6314 35.792 70.8534 36.299 70.9374 36.881L68.7234 37.277C68.6694 36.863 68.4804 36.536 68.1564 36.296C67.8384 36.056 67.4124 35.921 66.8784 35.891C66.3684 35.861 65.9574 35.939 65.6454 36.125C65.3334 36.305 65.1774 36.56 65.1774 36.89C65.1774 37.076 65.2404 37.235 65.3664 37.367C65.4924 37.499 65.7444 37.631 66.1224 37.763C66.5064 37.895 67.0764 38.057 67.8324 38.249C68.6064 38.447 69.2244 38.675 69.6864 38.933C70.1544 39.185 70.4904 39.488 70.6944 39.842C70.9044 40.196 71.0094 40.625 71.0094 41.129C71.0094 42.107 70.6524 42.875 69.9384 43.433C69.2304 43.991 68.2494 44.27 66.9954 44.27ZM79.9197 45.89C78.9237 45.89 78.0117 45.728 77.1837 45.404C76.3617 45.086 75.6477 44.633 75.0417 44.045C74.4417 43.463 73.9767 42.776 73.6467 41.984C73.3227 41.192 73.1607 40.328 73.1607 39.392C73.1607 38.228 73.3347 37.208 73.6827 36.332C74.0367 35.456 74.5227 34.727 75.1407 34.145C75.7647 33.557 76.4787 33.119 77.2827 32.831C78.0927 32.537 78.9477 32.39 79.8477 32.39C80.9937 32.39 81.9987 32.564 82.8627 32.912C83.7267 33.26 84.4467 33.737 85.0227 34.343C85.5987 34.943 86.0277 35.63 86.3097 36.404C86.5977 37.178 86.7357 37.994 86.7237 38.852C86.7057 40.028 86.4747 40.94 86.0307 41.588C85.5867 42.236 84.8547 42.56 83.8347 42.56C83.3487 42.56 82.8837 42.446 82.4397 42.218C82.0017 41.99 81.6987 41.657 81.5307 41.219L82.0977 41.228C81.8397 41.702 81.4947 42.035 81.0627 42.227C80.6307 42.413 80.1897 42.506 79.7397 42.506C79.1037 42.506 78.5427 42.368 78.0567 42.092C77.5707 41.81 77.1867 41.42 76.9047 40.922C76.6287 40.424 76.4907 39.845 76.4907 39.185C76.4907 38.507 76.6347 37.919 76.9227 37.421C77.2167 36.923 77.6127 36.539 78.1107 36.269C78.6087 35.999 79.1637 35.864 79.7757 35.864C80.1657 35.864 80.5737 35.945 80.9997 36.107C81.4257 36.263 81.7557 36.476 81.9897 36.746L81.6207 37.232V36.116H82.9527L82.9257 39.509C82.9257 39.971 83.0067 40.31 83.1687 40.526C83.3307 40.736 83.5587 40.841 83.8527 40.841C84.1647 40.841 84.3927 40.754 84.5367 40.58C84.6807 40.406 84.7737 40.172 84.8157 39.878C84.8637 39.584 84.8907 39.251 84.8967 38.879C84.9087 37.937 84.7587 37.16 84.4467 36.548C84.1407 35.93 83.7387 35.441 83.2407 35.081C82.7427 34.721 82.2057 34.466 81.6297 34.316C81.0597 34.166 80.5167 34.091 80.0007 34.091C79.1907 34.091 78.4677 34.217 77.8317 34.469C77.2017 34.715 76.6707 35.069 76.2387 35.531C75.8067 35.993 75.4827 36.545 75.2667 37.187C75.0507 37.829 74.9547 38.546 74.9787 39.338C75.0027 40.106 75.1377 40.79 75.3837 41.39C75.6297 41.99 75.9747 42.5 76.4187 42.92C76.8627 43.334 77.3847 43.649 77.9847 43.865C78.5907 44.081 79.2627 44.189 80.0007 44.189C80.3727 44.189 80.7417 44.153 81.1077 44.081C81.4797 44.009 81.8247 43.907 82.1427 43.775L82.7097 45.377C82.2777 45.545 81.8247 45.671 81.3507 45.755C80.8827 45.845 80.4057 45.89 79.9197 45.89ZM79.8657 40.787C80.2737 40.787 80.6187 40.67 80.9007 40.436C81.1887 40.202 81.3327 39.785 81.3327 39.185C81.3327 38.657 81.2127 38.258 80.9727 37.988C80.7327 37.712 80.3847 37.574 79.9287 37.574C79.3827 37.574 78.9747 37.721 78.7047 38.015C78.4407 38.303 78.3087 38.693 78.3087 39.185C78.3087 39.683 78.4437 40.076 78.7137 40.364C78.9897 40.646 79.3737 40.787 79.8657 40.787ZM93.1693 44.27C91.9693 44.27 90.9943 44 90.2443 43.46C89.4943 42.92 89.0383 42.161 88.8763 41.183L91.0903 40.841C91.2043 41.321 91.4563 41.699 91.8463 41.975C92.2363 42.251 92.7283 42.389 93.3223 42.389C93.8443 42.389 94.2463 42.287 94.5283 42.083C94.8163 41.873 94.9603 41.588 94.9603 41.228C94.9603 41.006 94.9063 40.829 94.7983 40.697C94.6963 40.559 94.4683 40.427 94.1143 40.301C93.7603 40.175 93.2173 40.016 92.4853 39.824C91.6693 39.608 91.0213 39.377 90.5413 39.131C90.0613 38.879 89.7163 38.582 89.5063 38.24C89.2963 37.898 89.1913 37.484 89.1913 36.998C89.1913 36.392 89.3503 35.864 89.6683 35.414C89.9863 34.964 90.4303 34.619 91.0003 34.379C91.5703 34.133 92.2423 34.01 93.0163 34.01C93.7723 34.01 94.4413 34.127 95.0233 34.361C95.6113 34.595 96.0853 34.928 96.4453 35.36C96.8053 35.792 97.0273 36.299 97.1113 36.881L94.8973 37.277C94.8433 36.863 94.6543 36.536 94.3303 36.296C94.0123 36.056 93.5863 35.921 93.0523 35.891C92.5423 35.861 92.1313 35.939 91.8193 36.125C91.5073 36.305 91.3513 36.56 91.3513 36.89C91.3513 37.076 91.4143 37.235 91.5403 37.367C91.6663 37.499 91.9183 37.631 92.2963 37.763C92.6803 37.895 93.2503 38.057 94.0063 38.249C94.7803 38.447 95.3983 38.675 95.8603 38.933C96.3283 39.185 96.6643 39.488 96.8683 39.842C97.0783 40.196 97.1833 40.625 97.1833 41.129C97.1833 42.107 96.8263 42.875 96.1123 43.433C95.4043 43.991 94.4233 44.27 93.1693 44.27ZM102.8 44.279C102.08 44.279 101.486 44.159 101.018 43.919C100.55 43.679 100.178 43.373 99.9015 43.001C99.6255 42.629 99.4215 42.233 99.2895 41.813C99.1575 41.393 99.0705 40.997 99.0285 40.625C98.9925 40.247 98.9745 39.941 98.9745 39.707V34.28H101.171V38.96C101.171 39.26 101.192 39.599 101.234 39.977C101.276 40.349 101.372 40.709 101.522 41.057C101.678 41.399 101.906 41.681 102.206 41.903C102.512 42.125 102.923 42.236 103.439 42.236C103.715 42.236 103.988 42.191 104.258 42.101C104.528 42.011 104.771 41.858 104.987 41.642C105.209 41.42 105.386 41.117 105.518 40.733C105.65 40.349 105.716 39.863 105.716 39.275L107.003 39.824C107.003 40.652 106.841 41.402 106.517 42.074C106.199 42.746 105.728 43.283 105.104 43.685C104.48 44.081 103.712 44.279 102.8 44.279ZM105.977 44V40.985H105.716V34.28H107.894V44H105.977ZM115.093 44.27C114.145 44.27 113.35 44.045 112.708 43.595C112.066 43.145 111.583 42.533 111.259 41.759C110.935 40.979 110.773 40.106 110.773 39.14C110.773 38.162 110.935 37.286 111.259 36.512C111.583 35.738 112.057 35.129 112.681 34.685C113.311 34.235 114.088 34.01 115.012 34.01C115.93 34.01 116.725 34.235 117.397 34.685C118.075 35.129 118.6 35.738 118.972 36.512C119.344 37.28 119.53 38.156 119.53 39.14C119.53 40.112 119.347 40.985 118.981 41.759C118.615 42.533 118.099 43.145 117.433 43.595C116.767 44.045 115.987 44.27 115.093 44.27ZM110.404 48.32V34.28H112.321V41.102H112.591V48.32H110.404ZM114.76 42.326C115.324 42.326 115.789 42.185 116.155 41.903C116.521 41.621 116.791 41.24 116.965 40.76C117.145 40.274 117.235 39.734 117.235 39.14C117.235 38.552 117.145 38.018 116.965 37.538C116.785 37.052 116.506 36.668 116.128 36.386C115.75 36.098 115.27 35.954 114.688 35.954C114.136 35.954 113.686 36.089 113.338 36.359C112.99 36.623 112.732 36.995 112.564 37.475C112.402 37.949 112.321 38.504 112.321 39.14C112.321 39.77 112.402 40.325 112.564 40.805C112.732 41.285 112.993 41.66 113.347 41.93C113.707 42.194 114.178 42.326 114.76 42.326ZM126.185 44.27C125.237 44.27 124.442 44.045 123.8 43.595C123.158 43.145 122.675 42.533 122.351 41.759C122.027 40.979 121.865 40.106 121.865 39.14C121.865 38.162 122.027 37.286 122.351 36.512C122.675 35.738 123.149 35.129 123.773 34.685C124.403 34.235 125.18 34.01 126.104 34.01C127.022 34.01 127.817 34.235 128.489 34.685C129.167 35.129 129.692 35.738 130.064 36.512C130.436 37.28 130.622 38.156 130.622 39.14C130.622 40.112 130.439 40.985 130.073 41.759C129.707 42.533 129.191 43.145 128.525 43.595C127.859 44.045 127.079 44.27 126.185 44.27ZM121.496 48.32V34.28H123.413V41.102H123.683V48.32H121.496ZM125.852 42.326C126.416 42.326 126.881 42.185 127.247 41.903C127.613 41.621 127.883 41.24 128.057 40.76C128.237 40.274 128.327 39.734 128.327 39.14C128.327 38.552 128.237 38.018 128.057 37.538C127.877 37.052 127.598 36.668 127.22 36.386C126.842 36.098 126.362 35.954 125.78 35.954C125.228 35.954 124.778 36.089 124.43 36.359C124.082 36.623 123.824 36.995 123.656 37.475C123.494 37.949 123.413 38.504 123.413 39.14C123.413 39.77 123.494 40.325 123.656 40.805C123.824 41.285 124.085 41.66 124.439 41.93C124.799 42.194 125.27 42.326 125.852 42.326ZM136.899 44.27C135.927 44.27 135.078 44.051 134.352 43.613C133.626 43.175 133.062 42.572 132.66 41.804C132.264 41.03 132.066 40.142 132.066 39.14C132.066 38.12 132.27 37.226 132.678 36.458C133.086 35.69 133.653 35.09 134.379 34.658C135.105 34.226 135.945 34.01 136.899 34.01C137.877 34.01 138.729 34.229 139.455 34.667C140.181 35.105 140.745 35.711 141.147 36.485C141.549 37.253 141.75 38.138 141.75 39.14C141.75 40.148 141.546 41.039 141.138 41.813C140.736 42.581 140.172 43.184 139.446 43.622C138.72 44.054 137.871 44.27 136.899 44.27ZM136.899 42.236C137.763 42.236 138.405 41.948 138.825 41.372C139.245 40.796 139.455 40.052 139.455 39.14C139.455 38.198 139.242 37.448 138.816 36.89C138.39 36.326 137.751 36.044 136.899 36.044C136.317 36.044 135.837 36.176 135.459 36.44C135.087 36.698 134.811 37.061 134.631 37.529C134.451 37.991 134.361 38.528 134.361 39.14C134.361 40.082 134.574 40.835 135 41.399C135.432 41.957 136.065 42.236 136.899 42.236ZM143.733 44V34.28H145.65V36.647L145.416 36.341C145.536 36.017 145.695 35.723 145.893 35.459C146.097 35.189 146.34 34.967 146.622 34.793C146.862 34.631 147.126 34.505 147.414 34.415C147.708 34.319 148.008 34.262 148.314 34.244C148.62 34.22 148.917 34.232 149.205 34.28V36.305C148.917 36.221 148.584 36.194 148.206 36.224C147.834 36.254 147.498 36.359 147.198 36.539C146.898 36.701 146.652 36.908 146.46 37.16C146.274 37.412 146.136 37.7 146.046 38.024C145.956 38.342 145.911 38.687 145.911 39.059V44H143.733ZM156.619 44C155.977 44.12 155.347 44.171 154.729 44.153C154.117 44.141 153.568 44.03 153.082 43.82C152.596 43.604 152.227 43.265 151.975 42.803C151.753 42.383 151.636 41.954 151.624 41.516C151.612 41.078 151.606 40.583 151.606 40.031V31.58H153.766V39.905C153.766 40.295 153.769 40.637 153.775 40.931C153.787 41.225 153.85 41.465 153.964 41.651C154.18 42.011 154.525 42.212 154.999 42.254C155.473 42.296 156.013 42.272 156.619 42.182V44ZM149.842 35.981V34.28H156.619V35.981H149.842ZM159.069 44V41.777H161.292V44H159.069ZM168.397 44.27C167.395 44.27 166.54 44.048 165.832 43.604C165.124 43.154 164.581 42.542 164.203 41.768C163.831 40.994 163.642 40.118 163.636 39.14C163.642 38.144 163.837 37.262 164.221 36.494C164.611 35.72 165.163 35.114 165.877 34.676C166.591 34.232 167.44 34.01 168.424 34.01C169.528 34.01 170.461 34.289 171.223 34.847C171.991 35.399 172.492 36.155 172.726 37.115L170.566 37.7C170.398 37.178 170.119 36.773 169.729 36.485C169.339 36.191 168.895 36.044 168.397 36.044C167.833 36.044 167.368 36.179 167.002 36.449C166.636 36.713 166.366 37.079 166.192 37.547C166.018 38.015 165.931 38.546 165.931 39.14C165.931 40.064 166.138 40.811 166.552 41.381C166.966 41.951 167.581 42.236 168.397 42.236C168.973 42.236 169.426 42.104 169.756 41.84C170.092 41.576 170.344 41.195 170.512 40.697L172.726 41.192C172.426 42.182 171.901 42.944 171.151 43.478C170.401 44.006 169.483 44.27 168.397 44.27ZM178.559 44.27C177.587 44.27 176.738 44.051 176.012 43.613C175.286 43.175 174.722 42.572 174.32 41.804C173.924 41.03 173.726 40.142 173.726 39.14C173.726 38.12 173.93 37.226 174.338 36.458C174.746 35.69 175.313 35.09 176.039 34.658C176.765 34.226 177.605 34.01 178.559 34.01C179.537 34.01 180.389 34.229 181.115 34.667C181.841 35.105 182.405 35.711 182.807 36.485C183.209 37.253 183.41 38.138 183.41 39.14C183.41 40.148 183.206 41.039 182.798 41.813C182.396 42.581 181.832 43.184 181.106 43.622C180.38 44.054 179.531 44.27 178.559 44.27ZM178.559 42.236C179.423 42.236 180.065 41.948 180.485 41.372C180.905 40.796 181.115 40.052 181.115 39.14C181.115 38.198 180.902 37.448 180.476 36.89C180.05 36.326 179.411 36.044 178.559 36.044C177.977 36.044 177.497 36.176 177.119 36.44C176.747 36.698 176.471 37.061 176.291 37.529C176.111 37.991 176.021 38.528 176.021 39.14C176.021 40.082 176.234 40.835 176.66 41.399C177.092 41.957 177.725 42.236 178.559 42.236ZM197.066 44V38.096C197.066 37.43 196.901 36.911 196.571 36.539C196.241 36.161 195.794 35.972 195.23 35.972C194.882 35.972 194.57 36.053 194.294 36.215C194.018 36.371 193.799 36.605 193.637 36.917C193.475 37.223 193.394 37.589 193.394 38.015L192.431 37.448C192.425 36.776 192.575 36.185 192.881 35.675C193.193 35.159 193.613 34.757 194.141 34.469C194.669 34.181 195.257 34.037 195.905 34.037C196.979 34.037 197.801 34.361 198.371 35.009C198.947 35.651 199.235 36.497 199.235 37.547V44H197.066ZM185.375 44V34.28H187.292V37.295H187.562V44H185.375ZM191.234 44V38.123C191.234 37.445 191.069 36.917 190.739 36.539C190.409 36.161 189.959 35.972 189.389 35.972C188.837 35.972 188.393 36.161 188.057 36.539C187.727 36.917 187.562 37.409 187.562 38.015L186.59 37.367C186.59 36.737 186.746 36.17 187.058 35.666C187.37 35.162 187.79 34.766 188.318 34.478C188.852 34.184 189.449 34.037 190.109 34.037C190.835 34.037 191.441 34.193 191.927 34.505C192.419 34.811 192.785 35.231 193.025 35.765C193.271 36.293 193.394 36.89 193.394 37.556V44H191.234Z" fill="#131318"/>
</svg>
