<svg width="158" height="48" viewBox="0 0 158 48" fill="none" xmlns="http://www.w3.org/2000/svg">
<path d="M0.12 12V0.48H4.568C4.68 0.48 4.80533 0.485333 4.944 0.495999C5.088 0.501333 5.232 0.517333 5.376 0.544C5.97867 0.634666 6.488 0.845333 6.904 1.176C7.32533 1.50133 7.64267 1.912 7.856 2.408C8.07467 2.904 8.184 3.45333 8.184 4.056C8.184 4.65333 8.07467 5.2 7.856 5.696C7.63733 6.192 7.31733 6.60533 6.896 6.936C6.48 7.26133 5.97333 7.46933 5.376 7.56C5.232 7.58133 5.088 7.59733 4.944 7.608C4.80533 7.61867 4.68 7.624 4.568 7.624H1.296V12H0.12ZM1.296 6.504H4.536C4.632 6.504 4.744 6.49867 4.872 6.488C5 6.47733 5.12533 6.45867 5.248 6.432C5.64267 6.34667 5.96533 6.184 6.216 5.944C6.472 5.704 6.66133 5.41867 6.784 5.088C6.912 4.75733 6.976 4.41333 6.976 4.056C6.976 3.69867 6.912 3.35467 6.784 3.024C6.66133 2.688 6.472 2.4 6.216 2.16C5.96533 1.92 5.64267 1.75733 5.248 1.672C5.12533 1.64533 5 1.62933 4.872 1.624C4.744 1.61333 4.632 1.608 4.536 1.608H1.296V6.504ZM16.0163 12V7.592C16.0163 7.112 15.9709 6.672 15.8803 6.272C15.7896 5.86667 15.6429 5.51467 15.4403 5.216C15.2429 4.912 14.9843 4.67733 14.6643 4.512C14.3496 4.34667 13.9656 4.264 13.5123 4.264C13.0963 4.264 12.7283 4.336 12.4083 4.48C12.0936 4.624 11.8269 4.832 11.6083 5.104C11.3949 5.37067 11.2323 5.696 11.1203 6.08C11.0083 6.464 10.9523 6.90133 10.9523 7.392L10.1203 7.208C10.1203 6.32267 10.2749 5.57867 10.5843 4.976C10.8936 4.37333 11.3203 3.91733 11.8643 3.608C12.4083 3.29867 13.0323 3.144 13.7363 3.144C14.2536 3.144 14.7043 3.224 15.0883 3.384C15.4776 3.544 15.8056 3.76 16.0723 4.032C16.3443 4.304 16.5629 4.616 16.7283 4.968C16.8936 5.31467 17.0136 5.68533 17.0883 6.08C17.1629 6.46933 17.2003 6.85867 17.2003 7.248V12H16.0163ZM9.76825 12V0.48H10.8323V6.984H10.9523V12H9.76825ZM22.8843 12.24C22.0256 12.24 21.2923 12.0453 20.6843 11.656C20.0763 11.2667 19.6096 10.728 19.2843 10.04C18.9589 9.352 18.7963 8.56267 18.7963 7.672C18.7963 6.76533 18.9616 5.97067 19.2923 5.288C19.6229 4.60533 20.0923 4.07467 20.7003 3.696C21.3136 3.312 22.0416 3.12 22.8843 3.12C23.7483 3.12 24.4843 3.31467 25.0923 3.704C25.7056 4.088 26.1723 4.624 26.4923 5.312C26.8176 5.99467 26.9803 6.78133 26.9803 7.672C26.9803 8.57867 26.8176 9.376 26.4923 10.064C26.1669 10.7467 25.6976 11.28 25.0843 11.664C24.4709 12.048 23.7376 12.24 22.8843 12.24ZM22.8843 11.112C23.8443 11.112 24.5589 10.7947 25.0283 10.16C25.4976 9.52 25.7323 8.69067 25.7323 7.672C25.7323 6.62667 25.4949 5.79467 25.0203 5.176C24.5509 4.55733 23.8389 4.248 22.8843 4.248C22.2389 4.248 21.7056 4.39467 21.2843 4.688C20.8683 4.976 20.5563 5.37867 20.3483 5.896C20.1456 6.408 20.0443 7 20.0443 7.672C20.0443 8.712 20.2843 9.54667 20.7643 10.176C21.2443 10.8 21.9509 11.112 22.8843 11.112ZM34.985 12V7.592C34.985 7.112 34.9397 6.672 34.849 6.272C34.7583 5.86667 34.6117 5.51467 34.409 5.216C34.2117 4.912 33.953 4.67733 33.633 4.512C33.3183 4.34667 32.9343 4.264 32.481 4.264C32.065 4.264 31.697 4.336 31.377 4.48C31.0623 4.624 30.7957 4.832 30.577 5.104C30.3637 5.37067 30.201 5.696 30.089 6.08C29.977 6.464 29.921 6.90133 29.921 7.392L29.089 7.208C29.089 6.32267 29.2437 5.57867 29.553 4.976C29.8623 4.37333 30.289 3.91733 30.833 3.608C31.377 3.29867 32.001 3.144 32.705 3.144C33.2223 3.144 33.673 3.224 34.057 3.384C34.4463 3.544 34.7743 3.76 35.041 4.032C35.313 4.304 35.5317 4.616 35.697 4.968C35.8623 5.31467 35.9823 5.68533 36.057 6.08C36.1317 6.46933 36.169 6.85867 36.169 7.248V12H34.985ZM28.737 12V3.36H29.801V5.488H29.921V12H28.737ZM41.8385 12.24C40.9958 12.24 40.2652 12.0533 39.6465 11.68C39.0332 11.3067 38.5558 10.7813 38.2145 10.104C37.8732 9.42667 37.7025 8.632 37.7025 7.72C37.7025 6.776 37.8705 5.96 38.2065 5.272C38.5425 4.584 39.0145 4.05333 39.6225 3.68C40.2358 3.30667 40.9585 3.12 41.7905 3.12C42.6438 3.12 43.3718 3.31733 43.9745 3.712C44.5772 4.10133 45.0332 4.66133 45.3425 5.392C45.6518 6.12267 45.7932 6.99467 45.7665 8.008H44.5665V7.592C44.5452 6.472 44.3025 5.62667 43.8385 5.056C43.3798 4.48533 42.7078 4.2 41.8225 4.2C40.8945 4.2 40.1825 4.50133 39.6865 5.104C39.1958 5.70667 38.9505 6.56533 38.9505 7.68C38.9505 8.768 39.1958 9.61333 39.6865 10.216C40.1825 10.8133 40.8838 11.112 41.7905 11.112C42.4092 11.112 42.9478 10.9707 43.4065 10.688C43.8705 10.4 44.2358 9.98667 44.5025 9.448L45.5985 9.872C45.2572 10.624 44.7532 11.208 44.0865 11.624C43.4252 12.0347 42.6758 12.24 41.8385 12.24ZM38.5345 8.008V7.024H45.1345V8.008H38.5345ZM50.745 12V0.48H51.929L58.273 9.92V0.48H59.457V12H58.273L51.929 2.552V12H50.745ZM65.0021 12.216C64.4848 12.216 64.0315 12.136 63.6421 11.976C63.2581 11.816 62.9301 11.6 62.6581 11.328C62.3915 11.056 62.1755 10.7467 62.0101 10.4C61.8448 10.048 61.7248 9.67733 61.6501 9.288C61.5755 8.89333 61.5381 8.50133 61.5381 8.112V3.36H62.7221V7.768C62.7221 8.24267 62.7675 8.68267 62.8581 9.088C62.9488 9.49333 63.0928 9.848 63.2901 10.152C63.4928 10.4507 63.7515 10.6827 64.0661 10.848C64.3861 11.0133 64.7728 11.096 65.2261 11.096C65.6421 11.096 66.0075 11.024 66.3221 10.88C66.6421 10.736 66.9088 10.5307 67.1221 10.264C67.3408 9.992 67.5061 9.664 67.6181 9.28C67.7301 8.89067 67.7861 8.45333 67.7861 7.968L68.6181 8.152C68.6181 9.03733 68.4635 9.78133 68.1541 10.384C67.8448 10.9867 67.4181 11.4427 66.8741 11.752C66.3301 12.0613 65.7061 12.216 65.0021 12.216ZM67.9061 12V9.872H67.7861V3.36H68.9621V12H67.9061ZM81.5021 12L81.5101 6.328C81.5101 5.66133 81.3235 5.13867 80.9501 4.76C80.5821 4.376 80.1128 4.184 79.5421 4.184C79.2168 4.184 78.8995 4.25867 78.5901 4.408C78.2808 4.55733 78.0248 4.79733 77.8221 5.128C77.6248 5.45867 77.5261 5.89067 77.5261 6.424L76.8301 6.224C76.8141 5.60533 76.9341 5.064 77.1901 4.6C77.4515 4.136 77.8088 3.776 78.2621 3.52C78.7208 3.25867 79.2381 3.128 79.8141 3.128C80.6835 3.128 81.3795 3.39733 81.9021 3.936C82.4248 4.46933 82.6861 5.192 82.6861 6.104L82.6781 12H81.5021ZM71.1901 12V3.36H72.2461V5.488H72.3741V12H71.1901ZM76.3581 12L76.3661 6.408C76.3661 5.72 76.1821 5.17867 75.8141 4.784C75.4515 4.384 74.9715 4.184 74.3741 4.184C73.7768 4.184 73.2941 4.38933 72.9261 4.8C72.5581 5.20533 72.3741 5.74667 72.3741 6.424L71.6701 6.04C71.6701 5.48533 71.8008 4.98933 72.0621 4.552C72.3235 4.10933 72.6808 3.76267 73.1341 3.512C73.5875 3.256 74.1021 3.128 74.6781 3.128C75.2275 3.128 75.7155 3.24533 76.1421 3.48C76.5741 3.71467 76.9128 4.056 77.1581 4.504C77.4035 4.952 77.5261 5.496 77.5261 6.136L77.5181 12H76.3581ZM88.6406 12.24C87.846 12.24 87.174 12.04 86.6246 11.64C86.0753 11.2347 85.6593 10.688 85.3766 10C85.094 9.30667 84.9526 8.53067 84.9526 7.672C84.9526 6.79733 85.094 6.01867 85.3766 5.336C85.6646 4.648 86.086 4.10667 86.6406 3.712C87.1953 3.31733 87.878 3.12 88.6886 3.12C89.478 3.12 90.1553 3.32 90.7206 3.72C91.286 4.12 91.718 4.664 92.0166 5.352C92.3206 6.04 92.4726 6.81333 92.4726 7.672C92.4726 8.536 92.3206 9.312 92.0166 10C91.7126 10.688 91.2753 11.2347 90.7046 11.64C90.134 12.04 89.446 12.24 88.6406 12.24ZM84.7526 12V0.48H85.9366V5.496H85.8086V12H84.7526ZM88.5206 11.144C89.1233 11.144 89.6246 10.992 90.0246 10.688C90.4246 10.384 90.7233 9.97067 90.9206 9.448C91.1233 8.92 91.2246 8.328 91.2246 7.672C91.2246 7.02133 91.126 6.43467 90.9286 5.912C90.7313 5.38933 90.43 4.976 90.0246 4.672C89.6246 4.368 89.1153 4.216 88.4966 4.216C87.894 4.216 87.3926 4.36267 86.9926 4.656C86.598 4.94933 86.302 5.35733 86.1046 5.88C85.9073 6.39733 85.8086 6.99467 85.8086 7.672C85.8086 8.33867 85.9073 8.936 86.1046 9.464C86.302 9.98667 86.6006 10.3973 87.0006 10.696C87.4006 10.9947 87.9073 11.144 88.5206 11.144ZM97.8854 12.24C97.0427 12.24 96.312 12.0533 95.6934 11.68C95.08 11.3067 94.6027 10.7813 94.2614 10.104C93.92 9.42667 93.7494 8.632 93.7494 7.72C93.7494 6.776 93.9174 5.96 94.2534 5.272C94.5894 4.584 95.0614 4.05333 95.6694 3.68C96.2827 3.30667 97.0054 3.12 97.8374 3.12C98.6907 3.12 99.4187 3.31733 100.021 3.712C100.624 4.10133 101.08 4.66133 101.389 5.392C101.699 6.12267 101.84 6.99467 101.813 8.008H100.613V7.592C100.592 6.472 100.349 5.62667 99.8854 5.056C99.4267 4.48533 98.7547 4.2 97.8694 4.2C96.9414 4.2 96.2294 4.50133 95.7334 5.104C95.2427 5.70667 94.9974 6.56533 94.9974 7.68C94.9974 8.768 95.2427 9.61333 95.7334 10.216C96.2294 10.8133 96.9307 11.112 97.8374 11.112C98.456 11.112 98.9947 10.9707 99.4534 10.688C99.9174 10.4 100.283 9.98667 100.549 9.448L101.645 9.872C101.304 10.624 100.8 11.208 100.133 11.624C99.472 12.0347 98.7227 12.24 97.8854 12.24ZM94.5814 8.008V7.024H101.181V8.008H94.5814ZM103.589 12V3.36H104.645V5.44L104.437 5.168C104.533 4.912 104.658 4.67733 104.813 4.464C104.967 4.24533 105.135 4.06667 105.317 3.928C105.541 3.73067 105.802 3.58133 106.101 3.48C106.399 3.37333 106.701 3.312 107.005 3.296C107.309 3.27467 107.586 3.296 107.837 3.36V4.464C107.522 4.384 107.178 4.36533 106.805 4.408C106.431 4.45067 106.087 4.6 105.773 4.856C105.485 5.08 105.269 5.34933 105.125 5.664C104.981 5.97333 104.885 6.304 104.837 6.656C104.789 7.00267 104.765 7.34667 104.765 7.688V12H103.589ZM113.198 10.72V9.352H114.566V10.72H113.198ZM113.206 6.008V4.64H114.574V6.008H113.206Z" fill="#131318" fill-opacity="0.4"/>
<path d="M4.778 47.492C4.082 46.676 3.485 45.749 2.987 44.711C2.495 43.673 2.12 42.587 1.862 41.453C1.61 40.313 1.496 39.182 1.52 38.06C1.496 36.938 1.61 35.807 1.862 34.667C2.12 33.527 2.495 32.441 2.987 31.409C3.485 30.371 4.082 29.444 4.778 28.628L6.596 29.96C5.864 30.842 5.291 31.724 4.877 32.606C4.463 33.482 4.169 34.373 3.995 35.279C3.827 36.179 3.74 37.106 3.734 38.06C3.74 39.014 3.827 39.944 3.995 40.85C4.169 41.75 4.463 42.641 4.877 43.523C5.291 44.399 5.864 45.278 6.596 46.16L4.778 47.492ZM11.5085 41.57V38.456H8.39445V36.566H11.5085V33.47H13.3985V36.566H16.4945V38.456H13.3985V41.57H11.5085ZM23.3581 44.27C22.5001 44.27 21.7291 44.069 21.0451 43.667C20.3671 43.265 19.8301 42.707 19.4341 41.993C19.0381 41.273 18.8401 40.442 18.8401 39.5V35.738C18.8401 34.718 19.0381 33.839 19.4341 33.101C19.8301 32.357 20.3881 31.787 21.1081 31.391C21.8281 30.989 22.6741 30.788 23.6461 30.788C24.2761 30.788 24.8761 30.881 25.4461 31.067C26.0161 31.253 26.5381 31.568 27.0121 32.012L25.2661 33.758C25.0501 33.542 24.8011 33.374 24.5191 33.254C24.2371 33.134 23.9461 33.074 23.6461 33.074C23.1781 33.074 22.7701 33.185 22.4221 33.407C22.0801 33.623 21.8131 33.908 21.6211 34.262C21.4351 34.61 21.3421 34.982 21.3421 35.378V37.304L20.9281 36.854C21.3001 36.476 21.7291 36.188 22.2151 35.99C22.7071 35.786 23.2141 35.684 23.7361 35.684C24.5521 35.684 25.2691 35.867 25.8871 36.233C26.5111 36.599 26.9971 37.1 27.3451 37.736C27.6991 38.372 27.8761 39.098 27.8761 39.914C27.8761 40.73 27.6691 41.468 27.2551 42.128C26.8411 42.782 26.2921 43.304 25.6081 43.694C24.9241 44.078 24.1741 44.27 23.3581 44.27ZM23.3581 41.93C23.7301 41.93 24.0691 41.84 24.3751 41.66C24.6871 41.48 24.9331 41.237 25.1131 40.931C25.2991 40.625 25.3921 40.286 25.3921 39.914C25.3921 39.542 25.3021 39.203 25.1221 38.897C24.9421 38.585 24.6991 38.339 24.3931 38.159C24.0871 37.973 23.7481 37.88 23.3761 37.88C23.0041 37.88 22.6621 37.973 22.3501 38.159C22.0441 38.339 21.7981 38.585 21.6121 38.897C21.4321 39.203 21.3421 39.542 21.3421 39.914C21.3421 40.274 21.4321 40.607 21.6121 40.913C21.7921 41.219 22.0351 41.465 22.3411 41.651C22.6471 41.837 22.9861 41.93 23.3581 41.93ZM29.6773 43.982V41.858L35.1133 37.034C35.5213 36.674 35.8093 36.335 35.9773 36.017C36.1453 35.699 36.2293 35.402 36.2293 35.126C36.2293 34.73 36.1483 34.379 35.9863 34.073C35.8243 33.761 35.5963 33.518 35.3023 33.344C35.0083 33.164 34.6633 33.074 34.2673 33.074C33.8533 33.074 33.4873 33.17 33.1693 33.362C32.8573 33.548 32.6143 33.797 32.4403 34.109C32.2663 34.415 32.1853 34.748 32.1973 35.108H29.6773C29.6773 34.22 29.8723 33.452 30.2623 32.804C30.6523 32.156 31.1953 31.655 31.8913 31.301C32.5873 30.947 33.3973 30.77 34.3213 30.77C35.1673 30.77 35.9233 30.956 36.5893 31.328C37.2613 31.694 37.7893 32.207 38.1733 32.867C38.5573 33.527 38.7493 34.292 38.7493 35.162C38.7493 35.804 38.6593 36.338 38.4793 36.764C38.2993 37.184 38.0323 37.574 37.6783 37.934C37.3243 38.288 36.8893 38.69 36.3733 39.14L32.8633 42.218L32.6653 41.678H38.7493V43.982H29.6773ZM42.1786 46.952L40.3606 45.62C41.0926 44.738 41.6656 43.859 42.0796 42.983C42.4936 42.101 42.7846 41.21 42.9526 40.31C43.1266 39.404 43.2166 38.474 43.2226 37.52C43.2166 36.566 43.1266 35.639 42.9526 34.739C42.7846 33.833 42.4936 32.942 42.0796 32.066C41.6656 31.184 41.0926 30.302 40.3606 29.42L42.1786 28.088C42.8746 28.904 43.4686 29.831 43.9606 30.869C44.4586 31.901 44.8336 32.987 45.0856 34.127C45.3436 35.267 45.4606 36.398 45.4366 37.52C45.4606 38.642 45.3436 39.773 45.0856 40.913C44.8336 42.047 44.4586 43.133 43.9606 44.171C43.4686 45.209 42.8746 46.136 42.1786 46.952ZM55.0686 44V33.704L52.6386 35.198V32.498L55.0686 31.04H57.5706V44H55.0686ZM60.6324 43.982V41.858L66.0684 37.034C66.4764 36.674 66.7644 36.335 66.9324 36.017C67.1004 35.699 67.1844 35.402 67.1844 35.126C67.1844 34.73 67.1034 34.379 66.9414 34.073C66.7794 33.761 66.5514 33.518 66.2574 33.344C65.9634 33.164 65.6184 33.074 65.2224 33.074C64.8084 33.074 64.4424 33.17 64.1244 33.362C63.8124 33.548 63.5694 33.797 63.3954 34.109C63.2214 34.415 63.1404 34.748 63.1524 35.108H60.6324C60.6324 34.22 60.8274 33.452 61.2174 32.804C61.6074 32.156 62.1504 31.655 62.8464 31.301C63.5424 30.947 64.3524 30.77 65.2764 30.77C66.1224 30.77 66.8784 30.956 67.5444 31.328C68.2164 31.694 68.7444 32.207 69.1284 32.867C69.5124 33.527 69.7044 34.292 69.7044 35.162C69.7044 35.804 69.6144 36.338 69.4344 36.764C69.2544 37.184 68.9874 37.574 68.6334 37.934C68.2794 38.288 67.8444 38.69 67.3284 39.14L63.8184 42.218L63.6204 41.678H69.7044V43.982H60.6324ZM75.6357 44.234C74.9877 44.234 74.3697 44.105 73.7817 43.847C73.1937 43.583 72.6807 43.214 72.2427 42.74C71.8107 42.266 71.5017 41.708 71.3157 41.066L73.6917 40.436C73.8177 40.91 74.0637 41.279 74.4297 41.543C74.8017 41.801 75.2037 41.93 75.6357 41.93C76.0077 41.93 76.3467 41.84 76.6527 41.66C76.9647 41.48 77.2107 41.237 77.3907 40.931C77.5767 40.625 77.6697 40.286 77.6697 39.914C77.6697 39.356 77.4777 38.879 77.0937 38.483C76.7157 38.081 76.2297 37.88 75.6357 37.88C75.4557 37.88 75.2817 37.907 75.1137 37.961C74.9457 38.009 74.7837 38.078 74.6277 38.168L73.5297 36.242L77.6517 32.822L77.8317 33.344H71.8197V31.04H79.9197V33.344L76.7157 36.44L76.6977 35.756C77.4417 35.87 78.0687 36.131 78.5787 36.539C79.0947 36.941 79.4847 37.439 79.7487 38.033C80.0187 38.621 80.1537 39.248 80.1537 39.914C80.1537 40.73 79.9467 41.465 79.5327 42.119C79.1187 42.767 78.5697 43.283 77.8857 43.667C77.2017 44.045 76.4517 44.234 75.6357 44.234ZM82.3105 38.456V36.566H87.7105V38.456H82.3105ZM93.8291 44.234C93.1811 44.234 92.5631 44.105 91.9751 43.847C91.3871 43.583 90.8741 43.214 90.4361 42.74C90.0041 42.266 89.6951 41.708 89.5091 41.066L91.8851 40.436C92.0111 40.91 92.2571 41.279 92.6231 41.543C92.9951 41.801 93.3971 41.93 93.8291 41.93C94.2011 41.93 94.5401 41.84 94.8461 41.66C95.1581 41.48 95.4041 41.237 95.5841 40.931C95.7701 40.625 95.8631 40.286 95.8631 39.914C95.8631 39.356 95.6711 38.879 95.2871 38.483C94.9091 38.081 94.4231 37.88 93.8291 37.88C93.6491 37.88 93.4751 37.907 93.3071 37.961C93.1391 38.009 92.9771 38.078 92.8211 38.168L91.7231 36.242L95.8451 32.822L96.0251 33.344H90.0131V31.04H98.1131V33.344L94.9091 36.44L94.8911 35.756C95.6351 35.87 96.2621 36.131 96.7721 36.539C97.2881 36.941 97.6781 37.439 97.9421 38.033C98.2121 38.621 98.3471 39.248 98.3471 39.914C98.3471 40.73 98.1401 41.465 97.7261 42.119C97.3121 42.767 96.7631 43.283 96.0791 43.667C95.3951 44.045 94.6451 44.234 93.8291 44.234ZM100.324 43.982V41.858L105.76 37.034C106.168 36.674 106.456 36.335 106.624 36.017C106.792 35.699 106.876 35.402 106.876 35.126C106.876 34.73 106.795 34.379 106.633 34.073C106.471 33.761 106.243 33.518 105.949 33.344C105.655 33.164 105.31 33.074 104.914 33.074C104.5 33.074 104.134 33.17 103.816 33.362C103.504 33.548 103.261 33.797 103.087 34.109C102.913 34.415 102.832 34.748 102.844 35.108H100.324C100.324 34.22 100.519 33.452 100.909 32.804C101.299 32.156 101.842 31.655 102.538 31.301C103.234 30.947 104.044 30.77 104.968 30.77C105.814 30.77 106.57 30.956 107.236 31.328C107.908 31.694 108.436 32.207 108.82 32.867C109.204 33.527 109.396 34.292 109.396 35.162C109.396 35.804 109.306 36.338 109.126 36.764C108.946 37.184 108.679 37.574 108.325 37.934C107.971 38.288 107.536 38.69 107.02 39.14L103.51 42.218L103.312 41.678H109.396V43.982H100.324ZM113.797 44V33.704L111.367 35.198V32.498L113.797 31.04H116.299V44H113.797ZM119.541 38.456V36.566H124.941V38.456H119.541ZM131.132 44.27C130.478 44.27 129.863 44.135 129.287 43.865C128.717 43.595 128.225 43.22 127.811 42.74C127.397 42.26 127.1 41.702 126.92 41.066L129.278 40.436C129.356 40.742 129.494 41.006 129.692 41.228C129.896 41.45 130.13 41.624 130.394 41.75C130.664 41.87 130.94 41.93 131.222 41.93C131.594 41.93 131.933 41.84 132.239 41.66C132.551 41.48 132.797 41.237 132.977 40.931C133.163 40.625 133.256 40.286 133.256 39.914C133.256 39.542 133.163 39.203 132.977 38.897C132.797 38.591 132.551 38.348 132.239 38.168C131.933 37.988 131.594 37.898 131.222 37.898C130.766 37.898 130.394 37.976 130.106 38.132C129.818 38.282 129.602 38.426 129.458 38.564L127.388 37.934L127.784 31.04H134.858V33.326H129.134L129.998 32.516L129.728 36.962L129.314 36.458C129.638 36.194 130.007 36.002 130.421 35.882C130.835 35.762 131.222 35.702 131.582 35.702C132.398 35.702 133.115 35.885 133.733 36.251C134.357 36.611 134.843 37.109 135.191 37.745C135.545 38.375 135.722 39.098 135.722 39.914C135.722 40.73 135.509 41.468 135.083 42.128C134.657 42.782 134.096 43.304 133.4 43.694C132.704 44.078 131.948 44.27 131.132 44.27ZM143.153 44V41.984H137.519V39.698L141.605 31.04H144.413L140.327 39.698H143.153V36.458H145.637V39.698H146.789V41.984H145.637V44H143.153ZM152.733 44.234C152.085 44.234 151.467 44.105 150.879 43.847C150.291 43.583 149.778 43.214 149.34 42.74C148.908 42.266 148.599 41.708 148.413 41.066L150.789 40.436C150.915 40.91 151.161 41.279 151.527 41.543C151.899 41.801 152.301 41.93 152.733 41.93C153.105 41.93 153.444 41.84 153.75 41.66C154.062 41.48 154.308 41.237 154.488 40.931C154.674 40.625 154.767 40.286 154.767 39.914C154.767 39.356 154.575 38.879 154.191 38.483C153.813 38.081 153.327 37.88 152.733 37.88C152.553 37.88 152.379 37.907 152.211 37.961C152.043 38.009 151.881 38.078 151.725 38.168L150.627 36.242L154.749 32.822L154.929 33.344H148.917V31.04H157.017V33.344L153.813 36.44L153.795 35.756C154.539 35.87 155.166 36.131 155.676 36.539C156.192 36.941 156.582 37.439 156.846 38.033C157.116 38.621 157.251 39.248 157.251 39.914C157.251 40.73 157.044 41.465 156.63 42.119C156.216 42.767 155.667 43.283 154.983 43.667C154.299 44.045 153.549 44.234 152.733 44.234Z" fill="#131318"/>
</svg>
